<svg width="23" height="21" viewBox="0 0 23 21" fill="none" xmlns="http://www.w3.org/2000/svg">
<path d="M8.74351 20.518C8.09496 20.518 7.47297 20.2604 7.01438 19.8018C6.55578 19.3432 6.29815 18.7212 6.29815 18.0726C6.29815 17.4241 6.55578 16.8021 7.01438 16.3435C7.47297 15.8849 8.09496 15.6273 8.74351 15.6273C9.39206 15.6273 10.014 15.8849 10.4726 16.3435C10.9312 16.8021 11.1889 17.4241 11.1889 18.0726C11.1889 18.7212 10.9312 19.3432 10.4726 19.8018C10.014 20.2604 9.39206 20.518 8.74351 20.518ZM17.3023 20.518C16.6537 20.518 16.0317 20.2604 15.5732 19.8018C15.1146 19.3432 14.8569 18.7212 14.8569 18.0726C14.8569 17.4241 15.1146 16.8021 15.5732 16.3435C16.0317 15.8849 16.6537 15.6273 17.3023 15.6273C17.9508 15.6273 18.5728 15.8849 19.0314 16.3435C19.49 16.8021 19.7476 17.4241 19.7476 18.0726C19.7476 18.7212 19.49 19.3432 19.0314 19.8018C18.5728 20.2604 17.9508 20.518 17.3023 20.518ZM1.36096 3.3063C1.05573 3.29645 0.766296 3.16828 0.553863 2.94888C0.341431 2.72949 0.222656 2.43607 0.222656 2.13069C0.222656 1.8253 0.341431 1.53188 0.553863 1.31249C0.766296 1.09309 1.05573 0.964923 1.36096 0.955078L2.76827 0.955078C3.87112 0.955078 4.82482 1.72048 5.06446 2.79644L6.59648 9.69481C6.83613 10.7708 7.78982 11.5362 8.89268 11.5362H18.0775L19.8406 4.48129H8.41461C8.11225 4.4675 7.82685 4.33768 7.61777 4.11883C7.40868 3.89999 7.29201 3.60897 7.29201 3.3063C7.29201 3.00363 7.40868 2.7126 7.61777 2.49376C7.82685 2.27492 8.11225 2.1451 8.41461 2.1313H19.8406C20.198 2.13119 20.5508 2.21258 20.872 2.36927C21.1933 2.52597 21.4746 2.75384 21.6945 3.03557C21.9145 3.31731 22.0673 3.64548 22.1414 3.99515C22.2155 4.34482 22.2089 4.70678 22.1221 5.05351L20.359 12.1059C20.2319 12.6148 19.9383 13.0666 19.5249 13.3894C19.1115 13.7122 18.602 13.8875 18.0775 13.8874H8.89268C7.82258 13.8875 6.78444 13.5227 5.9497 12.8531C5.11496 12.1836 4.53356 11.2493 4.30151 10.2047L2.76827 3.3063H1.36096Z" fill="#181725"/>
</svg>
