<svg width="29" height="19" viewBox="0 0 29 19" fill="none" xmlns="http://www.w3.org/2000/svg">
<path d="M18.6782 14.2368C19.4662 14.2368 20.2464 14.0816 20.9743 13.7801C21.7023 13.4786 22.3637 13.0366 22.9209 12.4795C23.478 11.9223 23.92 11.2609 24.2215 10.5329C24.523 9.80498 24.6782 9.02476 24.6782 8.23683C24.6782 7.4489 24.523 6.66868 24.2215 5.94073C23.92 5.21278 23.478 4.55134 22.9209 3.99419C22.3637 3.43704 21.7023 2.99508 20.9743 2.69355C20.2464 2.39203 19.4662 2.23683 18.6782 2.23683C17.0869 2.23683 15.5608 2.86897 14.4356 3.99419C13.3104 5.11941 12.6782 6.64553 12.6782 8.23683C12.6782 9.82813 13.3104 11.3543 14.4356 12.4795C15.5608 13.6047 17.0869 14.2368 18.6782 14.2368ZM24.9982 13.1428L28.5782 16.7228C28.6737 16.8151 28.7498 16.9255 28.8021 17.0476C28.8544 17.1696 28.8819 17.3009 28.883 17.4336C28.884 17.5664 28.8586 17.6981 28.8083 17.8209C28.7579 17.9438 28.6836 18.0554 28.5896 18.1492C28.4957 18.2431 28.384 18.3172 28.261 18.3674C28.1381 18.4176 28.0064 18.4428 27.8736 18.4416C27.7408 18.4403 27.6096 18.4127 27.4877 18.3602C27.3657 18.3077 27.2554 18.2314 27.1632 18.1358L23.5832 14.5558C21.9757 15.8037 19.953 16.392 17.927 16.201C15.901 16.0101 14.0238 15.0541 12.6778 13.5279C11.3317 12.0016 10.6179 10.0198 10.6817 7.98575C10.7454 5.95173 11.5819 4.01845 13.0209 2.57948C14.4599 1.1405 16.3931 0.303998 18.4272 0.240257C20.4612 0.176516 22.443 0.890328 23.9693 2.23638C25.4956 3.58244 26.4515 5.45955 26.6424 7.48559C26.8334 9.51163 26.2451 11.5343 24.9972 13.1418L24.9982 13.1428Z" fill="#181725"/>
<rect x="0.533203" y="0.236328" width="8.85499" height="2.39923" rx="1.19961" fill="#181725"/>
<rect x="0.533203" y="7.6748" width="6.46414" height="2.39923" rx="1.19961" fill="#181725"/>
<rect x="0.533203" y="15.1133" width="8.85499" height="2.39923" rx="1.19961" fill="#181725"/>
</svg>
