<svg width="24" height="20" viewBox="0 0 24 20" fill="none" xmlns="http://www.w3.org/2000/svg">
<path d="M3.90126 9.00969L11.7254 16.8338L19.5495 9.00969C20.2412 8.31794 20.6298 7.37973 20.6298 6.40145C20.6298 5.42317 20.2412 4.48496 19.5495 3.79321C19.2069 3.4507 18.8003 3.179 18.3528 2.99363C17.9053 2.80826 17.4256 2.71285 16.9412 2.71285C15.9629 2.71285 15.0247 3.10147 14.333 3.79321L11.7254 6.40084L9.11774 3.79444C8.42423 3.11198 7.48914 2.7312 6.51615 2.73504C5.54316 2.73889 4.61111 3.12705 3.92302 3.81498C3.23493 4.50291 2.84655 5.43487 2.84247 6.40786C2.8384 7.38084 3.21896 8.31602 3.90126 9.00969ZM10.8562 2.05357L11.7254 2.92278L12.5946 2.05357C13.1645 1.47865 13.8423 1.02196 14.5892 0.709714C15.3361 0.397469 16.1373 0.23582 16.9468 0.234047C17.7563 0.232274 18.5582 0.390413 19.3065 0.699384C20.0547 1.00836 20.7345 1.46207 21.307 2.03449C21.8794 2.60691 22.3331 3.28675 22.6421 4.03499C22.951 4.78323 23.1092 5.58513 23.1074 6.39465C23.1056 7.20417 22.944 8.00536 22.6317 8.75224C22.3195 9.49912 21.8628 10.177 21.2879 10.7469L12.5958 19.4402C12.4816 19.5545 12.346 19.6452 12.1968 19.707C12.0475 19.7689 11.8875 19.8008 11.726 19.8008C11.5644 19.8008 11.4044 19.7689 11.2552 19.707C11.1059 19.6452 10.9703 19.5545 10.8562 19.4402L2.16284 10.7481C1.58011 10.18 1.11597 9.50191 0.79735 8.75306C0.478733 8.00421 0.311981 7.19955 0.306767 6.38576C0.301553 5.57196 0.45798 4.76523 0.766975 4.01237C1.07597 3.2595 1.53138 2.57548 2.10679 1.99999C2.6822 1.42449 3.36616 0.968985 4.11898 0.659884C4.87181 0.350782 5.67852 0.19424 6.49231 0.199339C7.30611 0.204438 8.11079 0.371077 8.85968 0.689588C9.60857 1.0081 10.2868 1.47214 10.8549 2.0548L10.8562 2.05357Z" fill="#181725"/>
</svg>
