<svg width="21" height="21" viewBox="0 0 21 21" fill="none" xmlns="http://www.w3.org/2000/svg">
<path d="M7.70703 7.75358C8.23703 8.22858 8.93903 8.51758 9.70703 8.51758H11.707C12.4452 8.5186 13.1576 8.24646 13.707 7.75358H7.70703ZM7.70703 7.75358C7.15757 8.24646 6.44517 8.5186 5.70703 8.51758L7.70703 7.75358ZM6.75703 2.51758V2.46758H6.70703H3.70703C3.42856 2.46758 3.16149 2.5782 2.96457 2.77512C2.76766 2.97203 2.65703 3.2391 2.65703 3.51758V5.51758C2.65703 5.79606 2.76766 6.06313 2.96457 6.26004C3.16149 6.45695 3.42856 6.56758 3.70703 6.56758H5.70703C5.98551 6.56758 6.25258 6.45695 6.4495 6.26004C6.64641 6.06313 6.75703 5.79606 6.75703 5.51758V2.51758ZM3.71703 8.46758H3.66703V8.51758V18.4826V18.5326H3.71703H5.70703H5.75703V18.4826V13.5176C5.75703 13.0004 5.96248 12.5044 6.32818 12.1387C6.69387 11.773 7.18986 11.5676 7.70703 11.5676H9.70703C10.2242 11.5676 10.7202 11.773 11.0859 12.1387C11.4516 12.5044 11.657 13.0004 11.657 13.5176V18.4826V18.5326H11.707H17.72H17.77V18.4826V8.51758V8.46758H17.72H15.707C14.9518 8.46758 14.2616 8.18342 13.7404 7.71634L13.707 7.68642L13.6736 7.71636C13.1334 8.20099 12.4329 8.46858 11.7071 8.46758H11.707H9.70703C8.95179 8.46758 8.26157 8.18342 7.7404 7.71634L7.70702 7.68642L7.67365 7.71636C7.13338 8.20099 6.43289 8.46858 5.7071 8.46758H5.70703H3.71703ZM1.7152 7.6947C1.41876 7.42393 1.18073 7.09524 1.01593 6.72876C0.844705 6.34799 0.756451 5.93515 0.757034 5.51765V5.51758V3.51758C0.757034 2.73519 1.06784 1.98485 1.62107 1.43161C2.1743 0.878381 2.92465 0.567578 3.70703 0.567578H17.707C18.4894 0.567578 19.2398 0.878381 19.793 1.43161C20.3462 1.98485 20.657 2.73519 20.657 3.51758V5.51758C20.657 6.38491 20.2834 7.16561 19.6865 7.7055L19.67 7.72038V7.74258V18.4826C19.67 18.9998 19.4646 19.4957 19.0989 19.8614C18.7332 20.2271 18.2372 20.4326 17.72 20.4326H10.08V20.4317L10.0707 20.4334C9.95083 20.4561 9.82906 20.4676 9.70702 20.4676H7.70703C7.58501 20.4676 7.46324 20.4561 7.34332 20.4334L7.34349 20.4326H7.33403H3.71803C3.20086 20.4326 2.70487 20.2271 2.33918 19.8614C1.97348 19.4957 1.76803 18.9998 1.76803 18.4826V7.76258V7.64188L1.7152 7.6947ZM9.75703 13.5176V13.4676H9.70703H7.70703H7.65703V13.5176V18.4826V18.5326H7.70703H9.70703V18.4836H9.75703V18.4826V18.4326V13.5176ZM12.757 2.51758V2.46758H12.707H8.70703H8.65703V2.51758V5.51758C8.65703 5.79606 8.76766 6.06313 8.96457 6.26004C9.16149 6.45695 9.42856 6.56758 9.70703 6.56758H11.707C11.9855 6.56758 12.2526 6.45695 12.4495 6.26004C12.6464 6.06313 12.757 5.79606 12.757 5.51758V2.51758ZM14.707 2.46758H14.657V2.51758V5.51758C14.657 5.79606 14.7677 6.06313 14.9646 6.26004C15.1615 6.45695 15.4286 6.56758 15.707 6.56758H17.707C17.9855 6.56758 18.2526 6.45695 18.4495 6.26004C18.6464 6.06313 18.757 5.79606 18.757 5.51758V3.51758C18.757 3.2391 18.6464 2.97203 18.4495 2.77512C18.2526 2.5782 17.9855 2.46758 17.707 2.46758H14.707ZM14.707 11.5676H15.707C15.959 11.5676 16.2006 11.6677 16.3788 11.8458C16.5569 12.024 16.657 12.2656 16.657 12.5176V15.5176C16.657 15.7695 16.5569 16.0112 16.3788 16.1893C16.2006 16.3675 15.959 16.4676 15.707 16.4676H14.707C14.4551 16.4676 14.2134 16.3675 14.0353 16.1893C13.8571 16.0112 13.757 15.7695 13.757 15.5176V12.5176C13.757 12.2656 13.8571 12.024 14.0353 11.8458C14.2134 11.6677 14.4551 11.5676 14.707 11.5676Z" fill="#53B175" stroke="white" stroke-width="0.1"/>
</svg>
