<svg width="10" height="11" viewBox="0 0 10 11" fill="none" xmlns="http://www.w3.org/2000/svg">
<path fill-rule="evenodd" clip-rule="evenodd" d="M7.56849 2.41005C7.43313 1.05587 6.33212 2.37589e-05 4.99396 2.37589e-05C4.30715 -0.00298165 3.64593 0.279253 3.15812 0.784334C2.73469 1.22276 2.47219 1.79775 2.41028 2.41005H2.40981C1.47223 2.41005 0.684516 3.12569 0.463214 4.36828L0.0627485 7.59679C-0.278132 9.96079 0.785715 11 2.86776 11H7.12949C9.0549 11 10.2057 9.82864 9.96942 7.72652L9.55599 4.38992C9.29095 3.13188 8.52351 2.41005 7.60613 2.41005H7.56849ZM6.79673 2.41005C6.66593 1.49682 5.90848 0.796275 4.99235 0.796272C4.50758 0.794153 4.04196 0.992895 3.69846 1.34856C3.41957 1.63732 3.23983 2.01022 3.18208 2.41005H6.79673ZM2.40982 3.20631H7.60613C8.14414 3.20631 8.61678 3.65086 8.80233 4.52644L9.19369 7.6985C9.42659 9.38614 8.65133 10.2037 7.12949 10.2037H2.86777C1.21987 10.2037 0.554835 9.55411 0.821165 7.70666L1.21946 4.49162C1.37166 3.64037 1.84944 3.20631 2.40982 3.20631ZM6.50799 4.68402C6.71945 4.68402 6.89088 4.86226 6.89088 5.08214C6.89088 5.2837 6.74684 5.45027 6.55995 5.47663L6.50799 5.48027H6.48463C6.27316 5.48027 6.10174 5.30202 6.10174 5.08214C6.10174 4.88059 6.24578 4.71401 6.43267 4.68765L6.48463 4.68402H6.50799ZM3.91421 5.08214C3.91421 4.86226 3.74279 4.68402 3.53132 4.68402H3.50796L3.456 4.68765C3.26911 4.71401 3.12507 4.88059 3.12507 5.08214C3.12507 5.30202 3.29649 5.48027 3.50796 5.48027H3.53132L3.58328 5.47663C3.77017 5.45027 3.91421 5.2837 3.91421 5.08214Z" fill="white"/>
</svg>
