<svg width="55" height="65" viewBox="0 0 55 65" fill="none" xmlns="http://www.w3.org/2000/svg">
<path fill-rule="evenodd" clip-rule="evenodd" d="M37.4893 5.64232C37.7624 3.20288 36.0329 1.0001 33.5935 0.72703C31.1541 0.435753 28.9513 2.18341 28.6782 4.62285C28.3505 7.40818 28.8056 10.7397 29.3882 14.1622C31.0084 14.6537 32.574 15.3637 34.0304 16.2011C35.596 12.5055 37.1252 8.84636 37.4893 5.64232ZM54.62 16.3467C53.6552 14.0893 51.0337 13.0699 48.7763 14.0347C45.8089 15.3273 42.7323 17.8577 39.6375 20.461C40.8026 21.6079 41.8949 22.9005 42.8233 24.3022C46.3368 23.8653 49.7047 23.3374 52.308 22.2087C54.5654 21.2074 55.6031 18.5859 54.62 16.3467ZM47.1379 4.4408C45.1717 2.98442 42.3864 3.38493 40.93 5.35104C38.709 8.33663 37.2163 12.7968 35.596 17.1477C36.1422 17.5118 36.6519 17.8759 37.1434 18.2582C37.5075 18.5495 37.8898 18.859 38.2721 19.1685C41.9859 16.3649 45.8453 13.6342 48.0663 10.6486C49.5227 8.68252 49.104 5.89719 47.1379 4.4408Z" fill="white"/>
<path d="M38.6914 40.0855C37.326 41.5601 35.8696 42.9255 34.3222 44.2544C32.1559 46.1295 29.9531 47.95 27.7139 49.6977C25.3109 48.2231 23.5814 47.4767 23.2901 47.859C23.0353 48.2049 24.0365 49.4792 25.8388 51.1358C19.7948 55.6324 13.4049 59.6011 6.54174 62.8597C5.46766 63.3694 4.33897 63.7335 3.22847 64.134C2.9372 64.2433 2.62772 64.2433 2.50028 64.2615C0.752623 64.4617 0.224685 63.9884 0.297504 62.3864C0.515961 57.3983 2.06337 52.7196 3.66539 48.0592C4.1023 46.7849 4.55742 45.5106 5.03075 44.2362C7.45198 45.7108 9.18144 46.4754 9.47271 46.0931C9.78219 45.6744 8.32581 43.9996 5.88637 41.906C7.63403 37.3912 9.58194 32.9493 11.8757 28.6893C16.4633 32.0936 20.5412 34.3328 20.9963 33.7139C21.4515 33.0949 18.0836 29.7998 13.4414 26.3591L13.2411 26.2135C14.0421 24.8481 14.8795 23.4828 15.7716 22.1538C16.8821 20.479 18.2474 18.9498 19.5946 17.457C21.3968 15.4727 23.7271 14.7991 26.3303 15.3816C34.6681 17.2385 40.4573 22.0264 43.188 30.2367C43.7341 31.9116 43.2426 33.55 42.387 35.061C41.8044 36.0805 41.1672 37.0453 40.4573 37.9556C36.0517 34.7333 32.2287 32.658 31.7918 33.2405C31.3731 33.8231 34.4133 36.8269 38.6914 40.0855Z" fill="white"/>
</svg>
