<svg width="17" height="16" viewBox="0 0 17 16" fill="none" xmlns="http://www.w3.org/2000/svg">
<path fill-rule="evenodd" clip-rule="evenodd" d="M8.51237 1.11783C10.6428 -0.530727 13.588 -0.28566 15.4501 1.69513C17.5166 3.90099 17.5166 7.46317 15.4501 9.66903L10.1703 15.2796C9.25039 16.2401 7.77434 16.2401 6.85445 15.2796L1.57461 9.66903C-0.410087 7.57808 -0.53407 4.2153 1.29062 1.96626C3.1153 -0.282775 6.26809 -0.653174 8.51237 1.11783ZM8.97148 14.0258L14.2513 8.42424V8.39718C15.6195 6.87359 15.5892 4.46937 14.1833 2.98502C12.7694 1.50398 10.4959 1.50398 9.08201 2.98502C8.92237 3.15579 8.70506 3.25184 8.47836 3.25184C8.25166 3.25184 8.03435 3.15579 7.87471 2.98502C6.46078 1.50398 4.18734 1.50398 2.77341 2.98502C1.38656 4.48906 1.38656 6.89314 2.77341 8.39718L8.05325 14.0258C8.17461 14.1558 8.33991 14.229 8.51237 14.229C8.68483 14.229 8.85013 14.1558 8.97148 14.0258Z" fill="white"/>
</svg>
