<svg width="23" height="23" viewBox="0 0 23 23" fill="none" xmlns="http://www.w3.org/2000/svg">
<path d="M15.2685 13.8712C15.1687 13.766 15.05 13.6825 14.9192 13.6255C14.7884 13.5685 14.6481 13.5391 14.5064 13.5391C14.3647 13.5391 14.2244 13.5685 14.0936 13.6255C13.9628 13.6825 13.8441 13.766 13.7443 13.8712C13.5444 14.0816 13.4322 14.3661 13.4322 14.6627C13.4322 14.9593 13.5444 15.2439 13.7443 15.4542L20.3779 22.3925C20.4777 22.4977 20.5964 22.5813 20.7272 22.6383C20.858 22.6953 20.9983 22.7246 21.14 22.7246C21.2817 22.7246 21.422 22.6953 21.5528 22.6383C21.6836 22.5813 21.8024 22.4977 21.9021 22.3925C22.1021 22.1822 22.2143 21.8976 22.2143 21.601C22.2143 21.3044 22.1021 21.0199 21.9021 20.8095L15.2685 13.8712ZM16.5888 11.0757C17.4426 11.0749 18.2611 10.7196 18.8644 10.0877L21.9021 6.91049C22.1021 6.70014 22.2143 6.41559 22.2143 6.11899C22.2143 5.82239 22.1021 5.53784 21.9021 5.32748C21.8024 5.22225 21.6836 5.13873 21.5528 5.08173C21.422 5.02474 21.2817 4.99539 21.14 4.99539C20.9983 4.99539 20.858 5.02474 20.7272 5.08173C20.5964 5.13873 20.4777 5.22225 20.3779 5.32748L17.3402 8.50472C17.1391 8.71383 16.867 8.8312 16.5834 8.8312C16.2999 8.8312 16.0278 8.71383 15.8267 8.50472L19.6265 4.53037C19.8265 4.32001 19.9387 4.03546 19.9387 3.73886C19.9387 3.44226 19.8265 3.15771 19.6265 2.94736C19.5267 2.84213 19.408 2.75861 19.2772 2.70161C19.1464 2.64461 19.0061 2.61527 18.8644 2.61527C18.7227 2.61527 18.5824 2.64461 18.4516 2.70161C18.3208 2.75861 18.2021 2.84213 18.1023 2.94736L14.3132 6.91049C14.1133 6.70014 14.0011 6.41559 14.0011 6.11899C14.0011 5.82239 14.1133 5.53784 14.3132 5.32748L17.3402 2.15024C17.4526 2.0496 17.5438 1.92574 17.6082 1.78646C17.6727 1.64717 17.7089 1.49545 17.7146 1.34084C17.7203 1.18622 17.6954 1.03204 17.6414 0.887967C17.5875 0.743896 17.5056 0.613048 17.401 0.503636C17.2964 0.394223 17.1713 0.308609 17.0335 0.252166C16.8958 0.195722 16.7484 0.169669 16.6006 0.175641C16.4527 0.181613 16.3077 0.219482 16.1745 0.28687C16.0413 0.354258 15.9229 0.449711 15.8267 0.567237L12.789 3.74448C12.1859 4.376 11.8472 5.23205 11.8472 6.1246C11.8472 7.01715 12.1859 7.8732 12.789 8.50472L11.4794 9.89687L9.80491 8.16791C10.2802 7.27083 10.4599 6.23507 10.3163 5.22052C10.1728 4.20598 9.71391 3.26906 9.01059 2.55442C7.4649 0.937728 3.46111 -0.869818 1.57192 1.13981C-0.317264 3.14945 1.38944 7.29221 2.89221 8.92012C3.73142 9.80103 4.85974 10.3148 6.04801 10.3572H6.19828C6.92403 10.3464 7.63448 10.1374 8.25921 9.75092L9.94445 11.4799L1.05669 20.7758C0.957312 20.8805 0.87862 21.0046 0.825107 21.1411C0.771594 21.2776 0.744308 21.4238 0.744806 21.5713C0.745304 21.7188 0.773578 21.8648 0.828012 22.0009C0.882445 22.137 0.961974 22.2605 1.06206 22.3644C1.16214 22.4684 1.28082 22.5507 1.41131 22.6067C1.5418 22.6626 1.68156 22.6912 1.8226 22.6907C1.96364 22.6901 2.1032 22.6606 2.23331 22.6036C2.36342 22.5467 2.48154 22.4635 2.58092 22.3588L12.2415 12.2545L14.3025 10.099C14.6034 10.4111 14.9602 10.6581 15.3526 10.8257C15.7449 10.9933 16.165 11.0783 16.5888 11.0757ZM7.64737 7.48307C7.44628 7.69215 7.20628 7.85584 6.94226 7.96398C6.67823 8.07213 6.39578 8.12243 6.11241 8.11178C5.4849 8.08352 4.89234 7.8018 4.45937 7.32589C3.3001 6.11337 2.48431 3.36276 3.09615 2.72282C3.29937 2.56248 3.55046 2.4829 3.8046 2.49828C5.17458 2.61249 6.47129 3.19205 7.4971 4.14865C7.93534 4.57271 8.19669 5.15993 8.2248 5.78368C8.25291 6.40744 8.04553 7.01776 7.64737 7.48307Z" fill="white"/>
</svg>
