<svg width="18" height="20" viewBox="0 0 18 20" fill="none" xmlns="http://www.w3.org/2000/svg">
<path d="M14.898 8.21393C14.626 8.21393 14.3651 8.10497 14.1728 7.91102C13.9805 7.71707 13.8724 7.45402 13.8724 7.17974C13.8724 6.90545 13.9805 6.6424 14.1728 6.44846C14.3651 6.25451 14.626 6.14555 14.898 6.14555C15.1701 6.14555 15.4309 6.25451 15.6233 6.44846C15.8156 6.6424 15.9237 6.90545 15.9237 7.17974C15.9237 7.45402 15.8156 7.71707 15.6233 7.91102C15.4309 8.10497 15.1701 8.21393 14.898 8.21393ZM8.74419 8.21393H2.59034V3.04299H8.74419M16.7134 5.34922L16.7237 5.33888L12.9083 1.4917L11.8211 2.58794L13.9852 4.77008C13.0211 5.11136 12.3339 6.07316 12.3339 7.17974C12.3339 7.51927 12.4003 7.85547 12.5291 8.16915C12.658 8.48284 12.8468 8.76786 13.0849 9.00794C13.5658 9.49281 14.218 9.76521 14.898 9.76521C15.2673 9.76521 15.6057 9.68247 15.9237 9.54803V17.0045C15.9237 17.2788 15.8156 17.5419 15.6233 17.7358C15.4309 17.9298 15.1701 18.0387 14.898 18.0387C14.626 18.0387 14.3651 17.9298 14.1728 17.7358C13.9805 17.5419 13.8724 17.2788 13.8724 17.0045V12.3507C13.8724 11.8021 13.6563 11.276 13.2716 10.8881C12.8869 10.5002 12.3651 10.2823 11.8211 10.2823H10.7955V3.04299C10.7955 2.49442 10.5794 1.96832 10.1947 1.58042C9.80998 1.19253 9.28822 0.974609 8.74419 0.974609H2.59034C1.45188 0.974609 0.539062 1.89504 0.539062 3.04299V19.59H10.7955V11.8336H12.3339V17.0045C12.3339 17.6902 12.6041 18.3479 13.0849 18.8327C13.5658 19.3176 14.218 19.59 14.898 19.59C15.2348 19.59 15.5682 19.5231 15.8793 19.3932C16.1904 19.2633 16.473 19.0728 16.7111 18.8327C16.9492 18.5926 17.1381 18.3076 17.267 17.9939C17.3958 17.6803 17.4621 17.3441 17.4621 17.0045V7.17974C17.4621 6.46615 17.175 5.81461 16.7134 5.34922Z" fill="white"/>
</svg>
