<svg width="25" height="24" viewBox="0 0 25 24" fill="none" xmlns="http://www.w3.org/2000/svg">
<path d="M10.6599 0.395508C9.29017 0.418829 8.05296 1.24448 7.49328 2.52117L14.1948 4.56694C14.4894 2.79109 13.4338 1.06933 11.7351 0.546844C11.4307 0.453561 11.1116 0.402454 10.7925 0.395508H10.6599ZM7.23798 3.37659C6.9385 5.1574 7.99405 6.88412 9.69766 7.40512C11.4062 7.92611 13.2276 7.07267 13.9444 5.42038L7.23798 3.37659ZM20.2728 5.57419C19.0307 5.57915 17.71 6.1845 16.7134 7.60855L10.5863 16.3861C8.94159 18.738 9.65838 21.1991 11.2785 22.3601C12.9036 23.5262 15.432 23.3922 17.0767 21.0403L23.1989 12.2677C24.8436 9.91085 24.1268 7.45473 22.5066 6.2887C21.8978 5.85206 21.1663 5.599 20.3955 5.57419H20.2728ZM20.1844 6.43259C20.2482 6.43259 20.3121 6.43259 20.371 6.43755C20.965 6.46236 21.5247 6.67572 21.996 7.01809C23.2578 7.92115 23.8911 9.7223 22.4723 11.7517L19.3056 16.2918C17.548 15.8155 15.2896 14.1929 14.2635 12.6696L17.44 8.12458C18.2697 6.9387 19.2565 6.45244 20.1844 6.43259ZM4.46655 10.2135C3.99425 10.2185 3.52834 10.3177 3.09532 10.5112C1.46977 11.2307 0.62386 13.0666 1.11972 14.7933L7.53746 11.9601C6.89431 10.8635 5.72585 10.1986 4.46655 10.2135ZM7.88604 12.7738L1.46928 15.612C2.37509 17.17 4.28244 17.7952 5.91732 17.0758C7.54728 16.3513 8.39172 14.5055 7.88604 12.7738Z" fill="white"/>
</svg>
