<svg width="20" height="20" viewBox="0 0 20 20" fill="none" xmlns="http://www.w3.org/2000/svg">
<path fill-rule="evenodd" clip-rule="evenodd" d="M3.28418 1.12314C3.21051 1.16068 3.11383 1.24103 3.06934 1.30169C2.98863 1.41169 2.9884 1.42497 2.97813 6.36029C2.97082 9.85611 2.98023 11.3388 3.01023 11.4115C3.03359 11.468 3.10531 11.5647 3.16961 11.6263L3.28652 11.7383H9.99957H16.7126L16.8171 11.6406C17.0448 11.4279 17.0314 11.7534 17.0313 6.41798C17.0313 1.81677 17.027 1.4954 16.963 1.36997C16.9254 1.2963 16.8451 1.19962 16.7844 1.15513C16.6755 1.07521 16.6379 1.07412 13.733 1.06376C10.8989 1.05365 10.7885 1.05595 10.7007 1.12708C10.5744 1.22935 10.5739 1.4656 10.6998 1.56755C10.7861 1.63747 10.9132 1.64064 13.6178 1.64064H16.4455V3.8088V5.97701L12.9636 5.96701L9.48172 5.95704L9.42777 5.7422C9.33227 5.36173 9.14941 5.04603 8.85191 4.74779C8.40242 4.2972 7.93004 4.10158 7.29145 4.10158C6.29356 4.10158 5.38246 4.82189 5.1841 5.76771L5.14027 5.97658H4.34758H3.55484V3.80861V1.64064H6.57899C8.24227 1.64064 9.63289 1.62923 9.66926 1.61525C9.84317 1.54853 9.85492 1.18329 9.68613 1.09294C9.64121 1.06892 8.46277 1.05474 6.51641 1.05478C3.64391 1.05482 3.40836 1.05982 3.28418 1.12314ZM7.10953 2.46095C7.04242 2.52806 7.03141 2.59115 7.03141 2.90865C7.03141 3.23853 7.04059 3.28677 7.11691 3.35786C7.22488 3.45845 7.39938 3.46017 7.49797 3.36158C7.65754 3.20201 7.65805 2.58095 7.49871 2.45193C7.38539 2.36017 7.20617 2.36431 7.10953 2.46095ZM5.03922 3.00783C4.99184 3.05521 4.96109 3.13802 4.96109 3.21833C4.96109 3.32908 4.99984 3.38822 5.19777 3.57966C5.32793 3.70556 5.46875 3.82126 5.51066 3.83677C5.61082 3.87384 5.76609 3.81251 5.81809 3.7154C5.91035 3.54298 5.86844 3.43341 5.61215 3.17708C5.33781 2.90279 5.1884 2.85865 5.03922 3.00783ZM9.00004 3.18329C8.74559 3.44154 8.70231 3.54857 8.78773 3.70818C8.84785 3.82052 9.0373 3.8831 9.14699 3.82685C9.27941 3.75892 9.56707 3.4754 9.63527 3.3456C9.74031 3.14568 9.59434 2.9297 9.35418 2.9297C9.27762 2.9297 9.18363 2.99701 9.00004 3.18329ZM6.74488 4.7831C6.30418 4.96431 6.03246 5.21826 5.84238 5.62662C5.66422 6.00935 5.52723 5.97658 7.30484 5.97658C9.09016 5.97658 8.94914 6.0129 8.75512 5.60275C8.47406 5.00869 7.95738 4.6865 7.28895 4.68845C7.04617 4.68915 6.91992 4.71111 6.74488 4.7831ZM1.07438 5.89337C1.00992 5.93341 0.741876 6.18661 0.478673 6.45611C-0.151874 7.10177 -0.152851 7.039 0.498204 7.70279C1.13426 8.35126 1.24098 8.41119 1.4277 8.22443C1.6125 8.03966 1.56953 7.93294 1.12691 7.47802L0.730235 7.07033L1.12691 6.66263C1.56953 6.20771 1.6125 6.10099 1.4277 5.91622C1.31297 5.8015 1.23094 5.79619 1.07438 5.89337ZM18.5726 5.91622C18.3878 6.10099 18.4308 6.20771 18.8734 6.66263L19.2701 7.07033L18.8734 7.47802C18.4308 7.93294 18.3878 8.03966 18.5726 8.22443C18.7587 8.41056 18.8636 8.35189 19.5021 7.70497C19.9351 7.26626 20.0002 7.18369 20.0002 7.07298C20.0002 6.96247 19.9344 6.87865 19.5021 6.43787C18.8661 5.78939 18.7593 5.72947 18.5726 5.91622ZM3.55484 8.18361V9.8047H4.82695C5.64891 9.8047 6.12645 9.81935 6.17649 9.84615C6.36383 9.94642 6.34621 10.2562 6.14801 10.3465C6.0825 10.3764 5.64746 10.3906 4.80301 10.3906H3.55484V10.7813V11.1719H10.0002H16.4455V9.6281V8.08431L12.9522 8.0949C9.47336 8.10544 9.45852 8.10583 9.34871 8.18747C9.19316 8.3031 9.18043 8.4797 9.31969 8.58923C9.40914 8.65962 9.47762 8.67193 9.78082 8.67212C10.1965 8.67236 10.348 8.70779 10.5903 8.86146C11.111 9.19169 11.0026 9.97243 10.3908 10.2983C10.2657 10.3649 10.1308 10.3721 8.81149 10.3827C7.25891 10.3952 7.18918 10.3876 7.11113 10.1992C7.06293 10.0828 7.10383 9.91622 7.195 9.85732C7.2232 9.83912 7.90258 9.81544 8.70477 9.8047L10.1633 9.78517L10.2575 9.67556C10.373 9.54122 10.3768 9.44892 10.2709 9.35302C10.2056 9.29396 10.102 9.27513 9.73375 9.2554C9.10355 9.22165 8.87676 9.10755 8.71012 8.7404C8.51391 8.30814 8.72938 7.80146 9.19938 7.5899C9.34555 7.52408 9.58402 7.51884 12.9005 7.50861L16.4455 7.49763V7.03009V6.56251H10.0002H3.55484V8.18361ZM0.902891 13.6092C0.702891 13.7201 0.706134 13.6769 0.704649 16.2422C0.703165 18.8517 0.70086 18.8236 0.92254 18.9079C0.98129 18.9303 1.99348 18.9453 3.43801 18.9453H5.85516L5.96477 18.8511L6.07438 18.7568L6.085 16.3222C6.09281 14.5387 6.08352 13.8583 6.05024 13.7779C5.95602 13.5505 6.005 13.5546 3.39078 13.5561C1.47824 13.5572 0.977462 13.5679 0.902891 13.6092ZM7.47504 13.593C7.25934 13.6812 7.26578 13.5991 7.26578 16.2617V18.717L7.37996 18.8311L7.49414 18.9453H9.93555H12.377L12.4971 18.8442L12.6173 18.7431V16.2683V13.7935L12.5231 13.6838L12.4288 13.5742L9.99379 13.5665C8.65453 13.5622 7.52109 13.5742 7.47504 13.593ZM14.0902 13.617C14.0301 13.6496 13.9642 13.7204 13.9437 13.7743C13.9215 13.8326 13.9064 14.8523 13.9064 16.2946V18.717L14.0206 18.8311L14.1348 18.9453H16.5571C18.005 18.9453 19.019 18.9303 19.0778 18.9079C19.2991 18.8238 19.297 18.8479 19.297 16.2773C19.297 14.6513 19.2836 13.8793 19.2537 13.7937C19.1684 13.5489 19.2319 13.5545 16.5939 13.5563C14.5303 13.5576 14.1843 13.566 14.0902 13.617ZM1.28922 15.2202V16.2998L1.48008 16.1213C1.68156 15.9328 1.86555 15.868 2.06027 15.9169C2.12379 15.9328 2.3682 16.1421 2.65742 16.4283L3.14703 16.9127L3.7118 16.347C4.5102 15.5471 4.59914 15.5311 5.16488 16.0847L5.50797 16.4204V15.2805V14.1406H3.39859H1.28922V15.2202ZM7.85172 15.2202V16.2998L8.04367 16.1202C8.25809 15.9197 8.3702 15.8774 8.58441 15.9166C8.70496 15.9386 8.81594 16.0295 9.21641 16.4344L9.70219 16.9256L10.2516 16.3548C10.5537 16.0409 10.8504 15.7658 10.9109 15.7436C11.1868 15.6421 11.4284 15.7567 11.7922 16.1614L12.0299 16.4258L12.0307 15.2832L12.0314 14.1406H9.94156H7.85172V15.2202ZM14.4923 15.2202V16.2998L14.6843 16.1202C14.8989 15.9194 15.0112 15.8773 15.225 15.9171C15.344 15.9393 15.4621 16.0343 15.8593 16.4278L16.3475 16.9113L16.9336 16.3298C17.2908 15.9754 17.5617 15.7378 17.6274 15.7214C17.8603 15.6633 17.9996 15.7316 18.3635 16.0823L18.7111 16.4174V15.279V14.1406H16.6017H14.4923V15.2202ZM4.07043 16.8101C3.80832 17.0752 3.59391 17.309 3.59391 17.3295C3.59391 17.3501 3.82981 17.5902 4.11816 17.8631L4.64238 18.3594H5.0752H5.50797V17.8033V17.2473L5.04961 16.7877C4.7975 16.5349 4.58125 16.3281 4.56906 16.3281C4.55691 16.3281 4.3325 16.5451 4.07043 16.8101ZM10.5949 16.8347L10.1154 17.332L10.6445 17.8457L11.1736 18.3594H11.6025H12.0314V17.8033V17.2473L11.573 16.7877C11.3209 16.5349 11.1056 16.3302 11.0945 16.3327C11.0834 16.3353 10.8586 16.5611 10.5949 16.8347ZM17.2528 16.8294L16.7527 17.3306L17.2924 17.8438L17.8322 18.3569L18.2716 18.3581L18.7111 18.3594L18.7105 17.8223L18.71 17.2852L18.2579 16.8067C18.0093 16.5435 17.794 16.3281 17.7794 16.3281C17.7648 16.3281 17.5279 16.5537 17.2528 16.8294ZM1.59047 16.8526L1.28922 17.1818V17.7706V18.3594H2.53133H3.77344L2.85254 17.4414C2.34606 16.9365 1.92266 16.5235 1.91168 16.5235C1.9007 16.5235 1.75617 16.6716 1.59047 16.8526ZM8.15356 16.827L7.85172 17.1306V17.745V18.3594H9.08395H10.3162L9.39098 17.4414C8.88211 16.9365 8.46344 16.5235 8.46055 16.5235C8.4577 16.5235 8.31953 16.6601 8.15356 16.827ZM14.7942 16.827L14.4923 17.1306V17.745V18.3594H15.7306H16.9688L16.0529 17.4416C15.5491 16.9368 15.1277 16.5237 15.1164 16.5236C15.1052 16.5235 14.9602 16.6601 14.7942 16.827Z" fill="white"/>
</svg>
