<svg width="20" height="20" viewBox="0 0 20 20" fill="none" xmlns="http://www.w3.org/2000/svg">
<g clip-path="url(#clip0_35651_6777)">
<path fill-rule="evenodd" clip-rule="evenodd" d="M0.895615 0.586087C0.642256 0.629368 0.421552 0.752611 0.260537 0.940736C-0.0190726 1.26738 0.000302395 0.742884 0.000302395 7.98831C0.000302395 15.2416 -0.0196195 14.7086 0.263935 15.0398C0.342138 15.1312 0.49499 15.2474 0.603584 15.2979L0.801084 15.3899L3.99503 15.3903L7.18901 15.3907L7.17862 16.5086L7.16827 17.6266L6.60979 17.8909C6.30265 18.0364 6.01698 18.1864 5.97503 18.2244C5.90698 18.2859 5.89874 18.347 5.89874 18.7891C5.89874 19.2434 5.90561 19.291 5.98097 19.3592C6.06069 19.4314 6.18358 19.4336 10.0078 19.4336H13.9525L14.0272 19.3414C14.0916 19.2618 14.1019 19.1836 14.1019 18.7713C14.1019 18.3619 14.0919 18.2843 14.032 18.2302C13.9936 18.1954 13.7035 18.0421 13.3875 17.8894L12.8128 17.6118V16.5012V15.3907H16.0083H19.2037L19.4066 15.2896C19.6392 15.1737 19.8603 14.9355 19.9257 14.7307C19.9505 14.6532 19.9861 14.5732 20.005 14.5528C20.0494 14.5048 20.0505 1.35574 20.0061 1.38316C19.9878 1.39449 19.9527 1.33652 19.9281 1.25441C19.8635 1.03867 19.6092 0.769212 19.367 0.659759L19.1605 0.566439L10.1175 0.56097C5.14386 0.557962 0.994013 0.56929 0.895615 0.586087ZM0.821396 1.12316C0.746631 1.1607 0.645537 1.25117 0.596787 1.32417L0.508115 1.45691V6.95894V12.461H10.0003H19.4925V6.95894V1.45691L19.4038 1.32417C19.3551 1.25117 19.254 1.1607 19.1792 1.12316C19.051 1.0587 18.5317 1.05484 10.0003 1.05484C1.4689 1.05484 0.949638 1.0587 0.821396 1.12316ZM0.019404 7.98831C0.019404 11.6192 0.0239743 13.0987 0.0295993 11.2762C0.0352243 9.45374 0.0352243 6.48304 0.0295993 4.67468C0.0239743 2.86632 0.019404 4.35745 0.019404 7.98831ZM2.60128 2.10574C2.50202 2.21542 2.53245 2.42636 2.65655 2.48878C2.79987 2.56093 17.2007 2.56093 17.3441 2.48878C17.4682 2.42636 17.4986 2.21542 17.3993 2.10574C17.3335 2.033 17.1624 2.03128 10.0003 2.03128C2.83819 2.03128 2.6671 2.033 2.60128 2.10574ZM12.1353 3.56499C12.0575 3.62187 9.76593 9.67144 9.76593 9.81992C9.76593 10.018 10.0339 10.1188 10.1667 9.97074C10.2481 9.88011 12.5003 3.86956 12.5003 3.74312C12.5003 3.55867 12.2866 3.45437 12.1353 3.56499ZM2.86077 4.77464C2.81198 4.79816 2.7628 4.85429 2.75147 4.89933C2.74019 4.94441 2.73616 5.6139 2.74257 6.38714L2.75421 7.793L2.86241 8.01339C3.06815 8.4323 3.51265 8.73202 3.99061 8.77409C4.5696 8.82503 5.15901 8.44886 5.37933 7.88773C5.43819 7.73781 5.44894 7.53238 5.46038 6.33843L5.47362 4.96199L5.37546 4.86382C5.25616 4.74452 5.19804 4.74132 5.06417 4.84663L4.96124 4.92757L4.96101 6.26265C4.96089 7.10742 4.94511 7.65507 4.91808 7.75394C4.85476 7.98534 4.55866 8.25761 4.30386 8.31874C4.19401 8.34511 4.03737 8.35538 3.95577 8.3416C3.61921 8.28472 3.31726 8.0023 3.24085 7.67292C3.22128 7.58859 3.2046 6.9307 3.20378 6.21097C3.20292 5.49124 3.18933 4.88304 3.17354 4.85941C3.14702 4.81968 2.99007 4.7232 2.96186 4.72925C2.95507 4.7307 2.9096 4.75113 2.86077 4.77464ZM6.52319 4.7973C6.47511 4.83624 6.43585 4.91175 6.43585 4.96527C6.43585 5.01878 6.6219 5.44527 6.84936 5.91304L7.26284 6.76359L6.8264 7.63749C6.43831 8.41456 6.39421 8.52343 6.42827 8.62023C6.47929 8.76538 6.64159 8.8237 6.76487 8.74117C6.81679 8.70636 7.00499 8.39109 7.2039 8.00562L7.55202 7.33093L7.8819 7.99163C8.06331 8.35503 8.23897 8.68312 8.27225 8.72074C8.40862 8.87488 8.67218 8.75679 8.67218 8.54152C8.67218 8.48394 8.48554 8.06382 8.25737 7.60796L7.84257 6.77906L8.28276 5.89601C8.75327 4.95218 8.77612 4.8646 8.57561 4.77327C8.37636 4.68249 8.31487 4.75191 7.9246 5.50816L7.5589 6.21687L7.2221 5.5237C6.82421 4.7048 6.74241 4.6198 6.52319 4.7973ZM13.2592 4.7671C13.0816 4.83281 13.0811 4.83753 13.0938 6.33488L13.1058 7.75394L13.2101 7.97644C13.3429 8.25984 13.5933 8.51031 13.8891 8.65554C14.0912 8.75472 14.1646 8.76945 14.4534 8.7687C14.7283 8.768 14.8233 8.75031 15.005 8.66577C15.313 8.52253 15.5253 8.31574 15.6737 8.01437L15.8011 7.75581L15.8127 6.33421C15.8232 5.04038 15.8183 4.90597 15.7578 4.83913C15.6904 4.76464 15.5269 4.74249 15.4422 4.79636C15.3297 4.86788 15.3128 5.07062 15.3128 6.35179C15.3128 7.56179 15.3073 7.67023 15.2383 7.80433C15.0799 8.11222 14.8047 8.28171 14.4651 8.28042C14.088 8.27898 13.7903 8.08964 13.6547 7.76495C13.6039 7.64324 13.5941 7.40277 13.5941 6.27952C13.5941 5.16382 13.5844 4.92558 13.5367 4.85734C13.4687 4.76031 13.367 4.72722 13.2592 4.7671ZM16.8992 4.8255C16.8662 4.85843 16.829 4.94191 16.8164 5.01105C16.8038 5.08019 16.7987 5.92495 16.8051 6.88827L16.8167 8.6398L16.9089 8.71445C17.0272 8.81023 17.1287 8.80909 17.2269 8.71097C17.3028 8.63503 17.305 8.58077 17.305 6.7639C17.305 5.00292 17.3008 4.8912 17.2335 4.83031C17.144 4.74925 16.9778 4.74687 16.8992 4.8255ZM2.65655 11.105C2.53245 11.1675 2.50202 11.3784 2.60128 11.4881C2.6671 11.5608 2.83819 11.5625 10.0003 11.5625C17.1624 11.5625 17.3335 11.5608 17.3993 11.4881C17.4986 11.3784 17.4682 11.1675 17.3441 11.105C17.2666 11.066 15.7442 11.0559 10.0003 11.0559C4.25644 11.0559 2.73397 11.066 2.65655 11.105ZM9.94171 13.1331C9.33065 13.3467 9.21706 14.1677 9.74698 14.5401C9.98706 14.7089 10.2524 14.7262 10.5282 14.5913C10.8454 14.4361 10.9573 14.2524 10.9573 13.8868C10.9573 13.6493 10.9417 13.5839 10.8525 13.4493C10.6649 13.1657 10.2552 13.0235 9.94171 13.1331ZM10.0574 13.4043C9.64804 13.512 9.56999 14.0766 9.93386 14.2985C10.3141 14.5303 10.7809 14.1707 10.6615 13.7381C10.5923 13.4874 10.3178 13.3357 10.0574 13.4043ZM7.69561 16.5039V17.6172H10.0003H12.305V16.5039V15.3907H10.0003H7.69561V16.5039Z" fill="white"/>
</g>
<defs>
<clipPath id="clip0_35651_6777">
<rect width="20" height="20" fill="white"/>
</clipPath>
</defs>
</svg>
