<svg width="20" height="20" viewBox="0 0 20 20" fill="none" xmlns="http://www.w3.org/2000/svg">
<g clip-path="url(#clip0_35651_6782)">
<path fill-rule="evenodd" clip-rule="evenodd" d="M14.8117 0.69342C14.7192 0.772327 13.1255 4.57416 13.1255 4.71608C13.1255 4.93979 13.4528 5.08088 13.6258 4.9317C13.6707 4.89295 14.0299 4.08108 14.4553 3.0567L15.2056 1.25006L15.6206 1.24881C16.0553 1.24752 16.1199 1.22686 16.2083 1.06088C16.269 0.947014 16.2367 0.807913 16.1254 0.70428C16.048 0.632131 15.989 0.625061 15.4662 0.625061C14.9758 0.625061 14.8802 0.635061 14.8117 0.69342ZM16.9714 0.720959C16.9109 0.781389 16.8755 0.861467 16.8755 0.937561C16.8755 1.01365 16.9109 1.09373 16.9714 1.15416L17.0672 1.25006H18.1255H19.1837L19.2796 1.15416C19.34 1.09373 19.3755 1.01365 19.3755 0.937561C19.3755 0.861467 19.34 0.781389 19.2796 0.720959L19.1837 0.625061H18.1255H17.0672L16.9714 0.720959ZM10.4247 1.32471L10.3325 1.3994L10.3219 3.86932C10.31 6.62229 10.2958 6.47205 10.5797 6.58924C10.8402 6.69674 11.3405 6.95764 11.5215 7.08041C12.3115 7.61608 12.9675 8.40338 13.3356 9.25787C13.3958 9.39752 13.4884 9.55131 13.5414 9.59967L13.6376 9.68756H16.0981H18.5587L18.6604 9.58584L18.7621 9.48413L18.7377 8.97061C18.6352 6.81694 17.6728 4.77655 16.0942 3.36639C15.5322 2.86436 15.4209 2.81405 15.2206 2.97166C15.1412 3.03412 15.1176 3.08701 15.1176 3.20338C15.1176 3.34487 15.1389 3.37213 15.4626 3.64674C17.0146 4.96358 17.8997 6.69545 18.1056 8.81842L18.1293 9.06256L16.0278 9.06151L13.9262 9.06045L13.8098 8.79994C13.3571 7.78737 12.2131 6.64338 11.2006 6.19073L10.9401 6.07428L10.939 3.97155L10.938 1.86885L11.2016 1.89467C11.7401 1.9474 12.2594 2.04299 12.7087 2.17201C12.9628 2.24502 13.2053 2.30475 13.2475 2.30475C13.3623 2.30475 13.5161 2.13108 13.5161 2.00139C13.5161 1.82756 13.3907 1.73237 12.9945 1.60545C12.3496 1.39885 11.4411 1.25229 10.7958 1.25073C10.5787 1.25022 10.4965 1.26662 10.4247 1.32471ZM16.9714 1.97096C16.9109 2.03139 16.8755 2.11147 16.8755 2.18756C16.8755 2.26365 16.9109 2.34373 16.9714 2.40416L17.0672 2.50006H18.1255H19.1837L19.2796 2.40416C19.34 2.34373 19.3755 2.26365 19.3755 2.18756C19.3755 2.11147 19.34 2.03139 19.2796 1.97096L19.1837 1.87506H18.1255H17.0672L16.9714 1.97096ZM7.93014 3.16885C6.38619 3.32408 4.77221 3.99799 3.59733 4.97791C3.20569 5.30455 2.53623 6.00155 2.25838 6.37182C1.05487 7.97584 0.473068 10.03 0.664865 11.9979C0.811349 13.5005 1.36662 14.9398 2.25838 16.1283C2.53604 16.4983 3.20643 17.1964 3.59397 17.5189C5.21213 18.8655 7.43834 19.5456 9.53733 19.3344C10.488 19.2387 11.4945 18.9506 12.3442 18.5308C12.9684 18.2225 13.0864 18.1281 13.0864 17.9369C13.0864 17.8031 13.0271 17.7355 12.0797 16.788C11.3371 16.0454 11.049 15.7813 10.9816 15.7813C10.9313 15.7813 10.722 15.8443 10.5164 15.9213C9.86893 16.1638 9.52252 16.2244 8.76998 16.2265C8.03518 16.2286 7.70315 16.1769 7.10983 15.9676C6.3751 15.7085 5.8019 15.3433 5.23112 14.7707C4.4949 14.0321 4.06244 13.2389 3.84424 12.2266C3.74416 11.7624 3.74416 10.7378 3.84424 10.2735C4.06244 9.26123 4.4949 8.46799 5.23112 7.7294C6.13088 6.82678 7.2074 6.33979 8.4742 6.26225C8.83033 6.24049 8.8958 6.22545 8.9735 6.14776L9.06295 6.0583V4.68756V3.31682L8.96705 3.22096C8.88053 3.1344 8.84155 3.12557 8.56666 3.13026C8.3992 3.13311 8.11276 3.15045 7.93014 3.16885ZM7.93014 3.79315C5.72975 4.04053 3.73565 5.23569 2.53334 7.0278C1.69319 8.28006 1.24846 9.74053 1.25112 11.2388C1.25627 14.1552 2.91299 16.7628 5.56686 18.0315C7.54092 18.9752 9.96147 18.9827 11.8955 18.0511L12.269 17.8712L11.5684 17.1724L10.8678 16.4737L10.483 16.5951C9.8176 16.805 9.50174 16.8526 8.76998 16.8528C7.7858 16.8531 7.17502 16.7128 6.30905 16.2872C4.60401 15.4492 3.39592 13.7594 3.16854 11.8946C2.84815 9.26694 4.47764 6.72752 7.01217 5.90451C7.31049 5.80764 7.70682 5.72686 8.311 5.63983L8.43795 5.62151V4.6858V3.75006L8.33053 3.75514C8.27147 3.75791 8.09127 3.77502 7.93014 3.79315ZM8.37936 8.77182C8.33639 8.78174 8.20455 8.8094 8.08639 8.83323C7.19479 9.01303 6.04358 9.82534 5.2308 10.8481C4.93166 11.2246 4.93166 11.2774 5.23104 11.6481C6.40307 13.0995 7.86369 13.8822 9.0942 13.7183C9.96549 13.6024 10.7648 13.1669 11.616 12.3446C12.1668 11.8124 12.5005 11.3996 12.5005 11.2503C12.5005 11.0431 11.7776 10.2245 11.1669 9.73994C10.6028 9.29241 10.0494 8.99643 9.4958 8.84612C9.27897 8.78721 8.52846 8.73729 8.37936 8.77182ZM8.18405 9.45178C8.03365 9.49162 7.82616 9.56073 7.72291 9.60541C7.18916 9.83635 6.48287 10.3742 5.98264 10.9305L5.69529 11.2501L5.98264 11.5696C6.9885 12.6883 8.16197 13.256 9.12272 13.0887C9.89752 12.9537 10.7684 12.4013 11.5183 11.569L11.8056 11.2501L11.5183 10.9308C10.4252 9.71627 9.21401 9.17901 8.18405 9.45178ZM8.45506 10.0342C8.26405 10.0839 7.93205 10.2795 7.82709 10.4042C7.77397 10.4674 7.68385 10.6088 7.62682 10.7185C7.53873 10.8881 7.52303 10.9679 7.52229 11.2501C7.52151 11.5541 7.53264 11.6028 7.65416 11.8282C7.80197 12.1024 7.92455 12.2207 8.21893 12.3737C8.38905 12.4621 8.46729 12.4774 8.75045 12.4774C9.03362 12.4774 9.11186 12.4621 9.28197 12.3737C9.57635 12.2207 9.69893 12.1024 9.84674 11.8282C9.96826 11.6028 9.9794 11.5541 9.97862 11.2501C9.97787 10.9679 9.96217 10.8881 9.87408 10.7185C9.72186 10.4256 9.60256 10.3014 9.33842 10.1606C9.08604 10.026 8.69944 9.97073 8.45506 10.0342ZM8.49459 10.68C8.10049 10.8517 8.0074 11.3756 8.31615 11.6844C8.75502 12.1232 9.4742 11.7301 9.35873 11.1145C9.28963 10.7463 8.84998 10.5252 8.49459 10.68ZM13.8528 11.027C13.775 11.1048 13.76 11.1702 13.7381 11.5287C13.6673 12.6855 13.2275 13.7416 12.4675 14.5801C12.1977 14.8778 12.1557 14.9816 12.2405 15.1423C12.2728 15.2037 12.7102 15.6626 13.2123 16.1622C14.0871 17.0323 14.1317 17.0704 14.276 17.0704C14.4072 17.0704 14.4516 17.0439 14.6196 16.8653C15.8943 15.5099 16.6569 13.8351 16.836 11.9979C16.9017 11.3245 16.8912 11.145 16.7796 11.0335L16.6837 10.9376H15.313H13.9422L13.8528 11.027ZM14.3569 11.7481C14.302 12.1854 14.2106 12.641 14.1176 12.9405C13.977 13.3938 13.5977 14.1437 13.3228 14.5118C13.1945 14.6837 13.0595 14.8652 13.0228 14.9153C12.9564 15.006 12.9581 15.0083 13.6195 15.6696L14.2829 16.333L14.5256 16.0395C15.2839 15.1228 15.813 14.0419 16.0694 12.8861C16.1532 12.5082 16.2505 11.8296 16.2505 11.6227C16.2505 11.5702 16.1312 11.5626 15.3153 11.5626H14.3803L14.3569 11.7481Z" fill="white"/>
</g>
<defs>
<clipPath id="clip0_35651_6782">
<rect width="20" height="20" fill="white"/>
</clipPath>
</defs>
</svg>
