<svg width="39" height="16" viewBox="0 0 39 16" fill="none" xmlns="http://www.w3.org/2000/svg">
<path d="M31.7411 15.9905C33.4925 15.9905 34.3168 15.3051 35.0368 13.2277L38.1912 4.1541H36.3648L34.2496 11.174H34.2125L32.0972 4.16361H30.2191L33.2622 12.7998L33.0992 13.3251C32.9841 14.077 32.3259 14.6134 31.585 14.558C31.4436 14.558 31.1694 14.5429 31.0581 14.5279V15.954C31.2845 15.9857 31.5132 16.0008 31.7411 16V15.9905ZM25.6548 11.4465C24.6969 11.4465 24.0889 10.9712 24.0889 10.2517C24.0889 9.50617 24.6752 9.07199 25.7962 9.00305L27.7925 8.87391V9.5442C27.7485 10.6487 26.8392 11.5083 25.7622 11.4632C25.7259 11.4616 25.6904 11.4584 25.6548 11.4553V11.4465ZM25.1728 12.8545C26.2597 12.8846 27.2764 12.3038 27.8226 11.3396H27.8597V12.7657H29.5223V6.85905C29.5223 5.14607 28.1865 4.04238 26.13 4.04238C24.2225 4.04238 22.8118 5.16113 22.7601 6.69901H24.3786C24.5717 5.91699 25.2964 5.4012 26.0782 5.48835C27.1768 5.48835 27.7925 6.01366 27.7925 6.98028V7.63473L25.5521 7.7718C23.4662 7.90095 22.3382 8.77645 22.3382 10.2993C22.3367 11.8435 23.5017 12.8632 25.172 12.8632L25.1728 12.8545ZM15.5382 2.44904H17.6086C19.1677 2.44904 20.0584 3.30157 20.0584 4.80142C20.0584 6.30127 19.1677 7.16093 17.6017 7.16093H15.5382V2.44904ZM13.742 0.896106V12.7634H15.5382V8.71782H18.025C20.0507 8.82954 21.7804 7.2362 21.8894 5.15875C21.8956 5.0407 21.8963 4.92343 21.8917 4.80538C21.9875 2.75091 20.4416 1.00624 18.4384 0.907198C18.3202 0.901652 18.2027 0.902445 18.0845 0.907991L13.742 0.896106ZM7.78012 3.11062C6.74798 3.04961 5.86495 3.71199 5.37514 3.71199C4.88534 3.71199 4.12823 3.14152 3.31163 3.15737C2.23005 3.18589 1.24426 3.79993 0.721241 4.77131C-0.392018 6.73545 0.431532 9.64324 1.50771 11.2413C2.03459 12.0337 2.66655 12.9012 3.49705 12.8703C4.28352 12.8402 4.59563 12.345 5.54588 12.345C6.49612 12.345 6.77811 12.8703 7.60938 12.8545C8.47002 12.8394 9.01235 12.0622 9.54078 11.2699C9.91316 10.7089 10.2029 10.0949 10.4014 9.44754C9.38704 8.99275 8.7296 7.96829 8.72419 6.83291C8.73964 5.83142 9.25107 4.90759 10.0823 4.38228C9.55237 3.61057 8.70178 3.13677 7.78166 3.10349L7.78012 3.11062ZM7.1358 2.06239C6.68386 2.64633 5.99242 2.98147 5.26544 2.968C5.21908 2.24066 5.46012 1.5252 5.9337 0.981676C6.40496 0.420718 7.06937 0.0689312 7.78785 0C7.83884 0.747944 7.60475 1.48638 7.13426 2.06001" fill="black"/>
</svg>
