<svg width="55" height="15" viewBox="0 0 55 15" fill="none" xmlns="http://www.w3.org/2000/svg">
<path d="M9.3318 0.69852C8.65495 0.233216 7.77173 0 6.68212 0H2.46375C2.12972 0 1.94518 0.167055 1.91013 0.500842L0.196541 11.2575C0.178731 11.3631 0.205164 11.4597 0.275596 11.5476C0.345626 11.6356 0.433706 11.6793 0.539194 11.6793H2.54289C2.89433 11.6793 3.08749 11.5127 3.12295 11.1785L3.59744 8.27852C3.61477 8.13798 3.67658 8.02371 3.78207 7.93571C3.88747 7.84787 4.01931 7.79041 4.1775 7.76414C4.33569 7.73803 4.48486 7.72482 4.62572 7.72482C4.76618 7.72482 4.93308 7.73376 5.12673 7.75125C5.31989 7.76873 5.44303 7.77736 5.49581 7.77736C7.00729 7.77736 8.19368 7.35146 9.05507 6.4987C9.91605 5.64642 10.347 4.46455 10.347 2.95259C10.347 1.91561 10.0083 1.16431 9.3318 0.698277V0.69852ZM7.15686 3.92841C7.0687 4.54368 6.84047 4.94774 6.47139 5.14115C6.10222 5.33479 5.57495 5.43118 4.88956 5.43118L4.01947 5.45745L4.46777 2.63637C4.50275 2.44321 4.61694 2.3465 4.81043 2.3465H5.31151C6.01422 2.3465 6.52425 2.4478 6.84064 2.64959C7.15686 2.85186 7.26234 3.27824 7.15686 3.92841Z" fill="#003087"/>
<path d="M53.8482 0H51.8974C51.7036 0 51.5894 0.0967043 51.5546 0.290191L49.8409 11.2579L49.8145 11.3107C49.8145 11.399 49.8496 11.4821 49.9201 11.5612C49.99 11.6402 50.0783 11.6797 50.1836 11.6797H51.924C52.2573 11.6797 52.442 11.5131 52.4777 11.1789L54.1912 0.395678V0.369487C54.1912 0.123297 54.0766 0.000323397 53.8482 0.000323397V0Z" fill="#009CDE"/>
<path d="M30.2782 4.24506C30.2782 4.15738 30.2429 4.07374 30.1731 3.99484C30.1026 3.91579 30.0234 3.87598 29.9358 3.87598H27.9057C27.712 3.87598 27.5538 3.9643 27.431 4.13957L24.6364 8.2526L23.4763 4.29793C23.388 4.01692 23.1949 3.87598 22.8963 3.87598H20.9187C20.8306 3.87598 20.7515 3.91563 20.6817 3.99484C20.6111 4.07374 20.5762 4.15754 20.5762 4.24506C20.5762 4.28044 20.7476 4.79877 21.0902 5.80061C21.4329 6.80278 21.802 7.88376 22.1975 9.04388C22.593 10.2038 22.7994 10.8193 22.817 10.889C21.3757 12.8579 20.6553 13.9124 20.6553 14.0528C20.6553 14.2815 20.7693 14.3956 20.998 14.3956H23.0281C23.2213 14.3956 23.3795 14.3079 23.5028 14.1321L30.2259 4.42952C30.2608 4.39471 30.2782 4.33346 30.2782 4.24498V4.24506Z" fill="#003087"/>
<path d="M49.1821 3.87619H47.1783C46.932 3.87619 46.7831 4.1663 46.7303 4.74644C46.2728 4.04357 45.4385 3.69165 44.2254 3.69165C42.96 3.69165 41.8833 4.1663 40.9959 5.11545C40.1082 6.0646 39.6646 7.18104 39.6646 8.46398C39.6646 9.5012 39.9677 10.3272 40.574 10.9422C41.1804 11.5578 41.9931 11.865 43.013 11.865C43.5226 11.865 44.0411 11.7593 44.5683 11.5486C45.0956 11.3377 45.5083 11.0566 45.8076 10.7049C45.8076 10.7226 45.7897 10.8014 45.7549 10.9419C45.7194 11.0828 45.7021 11.1886 45.7021 11.2583C45.7021 11.5399 45.816 11.6801 46.0449 11.6801H47.8642C48.1977 11.6801 48.3913 11.5134 48.4438 11.1793L49.525 4.29798C49.5423 4.19241 49.516 4.09595 49.4458 4.00795C49.3752 3.92027 49.2875 3.87619 49.1821 3.87619ZM45.7416 9.07031C45.2934 9.50975 44.7528 9.72934 44.1201 9.72934C43.6102 9.72934 43.1975 9.58896 42.881 9.30756C42.5644 9.02695 42.4062 8.64022 42.4062 8.14751C42.4062 7.49766 42.626 6.9479 43.0656 6.49976C43.5044 6.05154 44.0498 5.82751 44.7001 5.82751C45.1918 5.82751 45.6005 5.97249 45.926 6.26236C46.2509 6.55247 46.414 6.95234 46.414 7.46221C46.4138 8.09489 46.1897 8.63111 45.7416 9.07031Z" fill="#009CDE"/>
<path d="M19.2316 3.87619H17.2278C16.9814 3.87619 16.8323 4.1663 16.7795 4.74644C16.3049 4.04357 15.47 3.69165 14.2748 3.69165C13.0093 3.69165 11.9326 4.1663 11.0451 5.11545C10.1574 6.0646 9.71375 7.18104 9.71375 8.46398C9.71375 9.5012 10.017 10.3272 10.6234 10.9422C11.2298 11.5578 12.0425 11.865 13.0621 11.865C13.554 11.865 14.064 11.7593 14.5912 11.5486C15.1185 11.3377 15.5403 11.0566 15.8567 10.7049C15.7862 10.9157 15.7512 11.1003 15.7512 11.2583C15.7512 11.5399 15.8654 11.6801 16.094 11.6801H17.9131C18.2468 11.6801 18.4404 11.5134 18.4932 11.1793L19.5741 4.29798C19.5914 4.19241 19.5651 4.09595 19.495 4.00795C19.4246 3.92027 19.3369 3.87619 19.2316 3.87619ZM15.791 9.08336C15.3427 9.5145 14.7931 9.72934 14.1432 9.72934C13.6332 9.72934 13.2245 9.58896 12.9172 9.30756C12.6094 9.02695 12.4558 8.64022 12.4558 8.14751C12.4558 7.49766 12.6754 6.9479 13.1149 6.49976C13.5541 6.05154 14.099 5.82743 14.7495 5.82743C15.2414 5.82743 15.6501 5.97249 15.9756 6.26236C16.3005 6.55247 16.4633 6.95234 16.4633 7.46221C16.4632 8.11254 16.2392 8.65319 15.791 9.08336Z" fill="#003087"/>
<path d="M39.2821 0.69852C38.6054 0.233216 37.7224 0 36.6325 0H32.4405C32.0889 0 31.8954 0.167055 31.8605 0.500842L30.1467 11.2575C30.1289 11.3631 30.1554 11.4597 30.2259 11.5476C30.2956 11.6356 30.3839 11.6793 30.4894 11.6793H32.6512C32.8621 11.6793 33.0026 11.5652 33.0731 11.3367L33.5477 8.27852C33.5652 8.13798 33.6267 8.02371 33.7323 7.93571C33.8378 7.84787 33.9695 7.79041 34.1278 7.76414C34.2859 7.73803 34.435 7.72482 34.576 7.72482C34.7165 7.72482 34.8833 7.73376 35.0768 7.75125C35.2701 7.76873 35.3935 7.77736 35.4459 7.77736C36.9577 7.77736 38.1438 7.35146 39.0052 6.4987C39.8665 5.64642 40.2971 4.46455 40.2971 2.95259C40.2972 1.91561 39.9586 1.16423 39.2821 0.698277V0.69852ZM36.5798 5.03558C36.1931 5.29918 35.613 5.43093 34.8398 5.43093L33.996 5.45737L34.4442 2.63621C34.479 2.44313 34.5933 2.34626 34.7869 2.34626H35.2613C35.648 2.34626 35.9555 2.36391 36.1844 2.39897C36.4125 2.43426 36.6325 2.54394 36.8434 2.7284C37.0545 2.91302 37.1598 3.18121 37.1598 3.53257C37.1598 4.27106 36.9662 4.77174 36.5798 5.03558Z" fill="#009CDE"/>
</svg>
