<svg width="27" height="18" viewBox="0 0 27 18" fill="none" xmlns="http://www.w3.org/2000/svg">
<path d="M16.4564 2.70663L9.52478 2.73047L9.73483 15.4205L16.6665 15.3967L16.4564 2.70663Z" fill="#FF5F00"/>
<path d="M9.98085 9.1018C9.93796 6.52074 11.0942 4.22736 12.9052 2.73977C11.5382 1.66708 9.82447 1.02203 7.96671 1.0284C3.56559 1.04347 0.0649318 4.66915 0.139154 9.1355C0.213376 13.6019 3.83413 17.2031 8.23525 17.1881C10.093 17.1817 11.7851 16.525 13.1163 15.4431C11.2564 13.9905 10.0237 11.6829 9.98085 9.1018Z" fill="#EB001B"/>
<path d="M26.0519 8.9923C26.1261 13.4587 22.6255 17.0843 18.2244 17.0994C16.3666 17.1058 14.6528 16.4607 13.2858 15.388C15.119 13.9004 16.2531 11.6071 16.2102 9.02601C16.1673 6.44495 14.935 4.15975 13.0747 2.68473C14.4059 1.6028 16.0981 0.94609 17.9558 0.939727C22.3569 0.924654 25.9781 4.54839 26.0519 8.9923Z" fill="#F79E1B"/>
</svg>
