<svg width="45" height="14" viewBox="0 0 45 14" fill="none" xmlns="http://www.w3.org/2000/svg">
<path d="M41.9737 0.197266H39.1448C38.2895 0.197266 37.6316 0.460423 37.2369 1.31568L31.8422 13.6183H35.6579C35.6579 13.6183 36.3158 11.9736 36.4474 11.5788C36.8422 11.5788 40.5921 11.5788 41.1185 11.5788C41.25 12.0393 41.579 13.5525 41.579 13.5525H45L41.9737 0.197266ZM37.5 8.81567C37.829 8.0262 38.9474 5.06568 38.9474 5.06568C38.9474 5.13146 39.2764 4.2762 39.4079 3.81568L39.6711 4.99989C39.6711 4.99989 40.3948 8.22356 40.5264 8.88146H37.5V8.81567Z" fill="#3362AB"/>
<path d="M32.1052 9.2105C32.1052 11.9737 29.6052 13.8158 25.7237 13.8158C24.0789 13.8158 22.5 13.4868 21.6447 13.0921L22.171 10.0658L22.6316 10.2631C23.8158 10.7894 24.6052 10.9868 26.0526 10.9868C27.1052 10.9868 28.2236 10.5921 28.2236 9.67103C28.2236 9.07893 27.7631 8.68419 26.3158 8.0263C24.9342 7.3684 23.0921 6.31577 23.0921 4.40788C23.0921 1.77631 25.6579 0 29.2763 0C30.6579 0 31.8421 0.263157 32.5657 0.592104L32.0394 3.48683L31.7763 3.22368C31.1184 2.96052 30.2631 2.69736 29.0131 2.69736C27.6315 2.76315 26.9736 3.35526 26.9736 3.88157C26.9736 4.47367 27.7631 4.9342 29.0131 5.5263C31.1184 6.51314 32.1052 7.63156 32.1052 9.2105Z" fill="#3362AB"/>
<path d="M0 0.329075L0.0657893 0.065918H5.72367C6.51314 0.065918 7.10525 0.329075 7.30261 1.18434L8.55261 7.10538C7.30261 3.94749 4.40788 1.3817 0 0.329075Z" fill="#F9B50B"/>
<path d="M16.5131 0.197381L10.7894 13.5526H6.90781L3.61835 2.36843C5.98676 3.88158 7.96044 6.25 8.68412 7.89473L9.07886 9.27631L12.6315 0.131592H16.5131V0.197381Z" fill="#3362AB"/>
<path d="M18.0262 0.131592H21.6446L19.342 13.5526H15.7236L18.0262 0.131592Z" fill="#3362AB"/>
</svg>
