<svg width="12" height="12" viewBox="0 0 12 12" fill="none" xmlns="http://www.w3.org/2000/svg">
<path d="M11.25 1.12263L8.24738 1.12264V0.375088C8.24738 0.167852 8.07956 0 7.87238 0C7.66519 0 7.49738 0.167852 7.49738 0.375088V1.12245H4.49738V0.375088C4.49738 0.167852 4.32956 0 4.12238 0C3.91519 0 3.74738 0.167852 3.74738 0.375088V1.12245H0.75C0.335812 1.12245 0 1.45834 0 1.87263V11.2498C0 11.6641 0.335812 12 0.75 12H11.25C11.6642 12 12 11.6641 12 11.2498V1.87263C12 1.45852 11.6642 1.12263 11.25 1.12263ZM11.25 11.2498H0.75V1.87263H3.74738V2.25053C3.74738 2.45775 3.91519 2.62562 4.12238 2.62562C4.32956 2.62562 4.49738 2.45775 4.49738 2.25053V1.87281H7.49738V2.25072C7.49738 2.45795 7.66519 2.6258 7.87238 2.6258C8.07956 2.6258 8.24738 2.45795 8.24738 2.25072V1.87281H11.25V11.2498ZM8.625 5.99877H9.375C9.582 5.99877 9.75 5.83073 9.75 5.62368V4.87351C9.75 4.66646 9.582 4.49842 9.375 4.49842H8.625C8.418 4.49842 8.25 4.66646 8.25 4.87351V5.62368C8.25 5.83073 8.418 5.99877 8.625 5.99877ZM8.625 8.99929H9.375C9.582 8.99929 9.75 8.83143 9.75 8.6242V7.87402C9.75 7.66697 9.582 7.49893 9.375 7.49893H8.625C8.418 7.49893 8.25 7.66697 8.25 7.87402V8.6242C8.25 8.83162 8.418 8.99929 8.625 8.99929ZM6.375 7.49893H5.625C5.418 7.49893 5.25 7.66697 5.25 7.87402V8.6242C5.25 8.83143 5.418 8.99929 5.625 8.99929H6.375C6.582 8.99929 6.75 8.83143 6.75 8.6242V7.87402C6.75 7.66716 6.582 7.49893 6.375 7.49893ZM6.375 4.49842H5.625C5.418 4.49842 5.25 4.66646 5.25 4.87351V5.62368C5.25 5.83073 5.418 5.99877 5.625 5.99877H6.375C6.582 5.99877 6.75 5.83073 6.75 5.62368V4.87351C6.75 4.66627 6.582 4.49842 6.375 4.49842ZM3.375 4.49842H2.625C2.418 4.49842 2.25 4.66646 2.25 4.87351V5.62368C2.25 5.83073 2.418 5.99877 2.625 5.99877H3.375C3.582 5.99877 3.75 5.83073 3.75 5.62368V4.87351C3.75 4.66627 3.582 4.49842 3.375 4.49842ZM3.375 7.49893H2.625C2.418 7.49893 2.25 7.66697 2.25 7.87402V8.6242C2.25 8.83143 2.418 8.99929 2.625 8.99929H3.375C3.582 8.99929 3.75 8.83143 3.75 8.6242V7.87402C3.75 7.66716 3.582 7.49893 3.375 7.49893Z" fill="black" fill-opacity="0.7"/>
</svg>
